<svg width="268" height="242" viewBox="0 0 268 242" xmlns="http://www.w3.org/2000/svg"><title>Anchor</title><g fill="none" fill-rule="evenodd"><path d="M154.384 4.919s-.142-1.98 1.414-1.838c1.555.14.707 2.332.707 2.332s.989-2.262 2.402-1.485c1.415.778-.282 2.827-.282 2.827s1.413-1.554 2.545-.353c1.131 1.202-.919 2.05-.919 2.05s2.191-1.484 2.968-.071c.778 1.414-1.555 1.909-1.555 1.909s2.545-1.06 3.04.424c.494 1.484-1.555 1.626-1.555 1.626s2.191-.071 2.332 1.272c.142 1.343-1.625 1.06-1.625 1.06s2.261-.141 2.261 1.202-2.615.707-2.615.707c.001 0 1.06.777-.07 1.273-1.131.494-1.838-1.202-1.838-1.202l-8.624-10.25s-1.979-.494-1.201-1.837c.777-1.344 2.615.354 2.615.354m-8.977-.849s1.414-1.979.142-3.11c-1.273-1.131-1.556 1.625-1.556 1.625s-.636-2.686-1.979-2.615c-1.344.071-.565 1.767-.565 1.767S139.611.182 138.904.252c-.707.072-.142 1.696-.142 1.696s-1.131-1.907-2.12-1.484c-.99.425.141 2.121.141 2.121s-1.413-2.261-2.614-1.414c-1.203.849.14 2.263.14 2.263s-1.483-1.698-2.615-.991c-1.131.708.495 3.04.495 3.04s-1.979-2.402-2.898-1.06c-.919 1.343 2.898 2.898 2.898 2.898l13.218-3.251m40.158 25.585l-.017-.008-.006.007.023.001m21.164 1.539l-.045-.038-.091.02c.046.005.09.012.136.018" fill="#A68159"/><path d="M240.673 44.672c.726-.721 1.247-1.836.581-3.482-1-2.469-7.923-4.466-11.817-5.411.381-.894.211-2.099-1.647-3.542-2.931-2.273-13.163-2.763-19.056-2.853.434-1.056.299-2.449-2.275-3.603-3.541-1.587-14.391.612-19.96 1.906.085-.961-.45-2.048-2.629-2.866-2.973-1.114-10.67.607-16.374 2.168-.202-.762-.895-1.543-2.561-2.168-.672-.252-1.593-.355-2.673-.351l.002-.026c0-3.536-2.971-6.4-6.636-6.4s-6.636 2.864-6.636 6.4c0 .815.164 1.591.452 2.307-4.246 1.133-7.632 2.262-7.632 2.262l2.667 1.044c-1.064.754-2.307 2.32.37 4.747 2.579 2.337 11.692 3.6 17.654 4.191.19.834.945 1.653 2.882 2.142 2.353.592 7.264-.772 11.901-2.426.223.803.985 1.584 2.854 2.054 2.013.507 5.899-.419 9.884-1.733-.057.957.506 2.023 2.685 2.793 2.269.801 7.22-.08 11.954-1.28.214.51.611 1.04 1.299 1.569 1.855 1.429 7.209 1.135 11.65.58.075.63.36 1.287 1.007 1.923 1.011.991 3.571.934 6.231.523-.202.615-.221 1.347.123 2.214.839 2.117 6.421 3.378 10.111 3.992 0 .168-.005.337-.022.51 2.523.053 5.03.138 7.512.275a12.502 12.502 0 0 0-1.901-7.459zm-33.944-13.478c-.046-.006-.09-.013-.136-.018l.091-.02.045.038zm-21.164-1.539l-.023-.001.006-.007.017.008zm79.228 201.636c.608-1.018 1.626-3.515-2.364-4.434-.569-.131-1.288-.135-2.109-.05.074-1.049-.48-2.211-2.932-2.777-2.319-.535-7.08.953-11.558 2.723.05-1.034-.524-2.167-2.934-2.723-2.182-.503-6.521.784-10.756 2.41-.08-.943-.765-1.91-2.934-2.41-2.041-.471-5.975.626-9.944 2.103.015-1.012-.591-2.098-2.937-2.64-2.11-.487-6.245.702-10.348 2.255.549-1.148.723-2.892-2.401-3.905-2.553-.829-8.425.637-13.506 2.247.709-1.078 1.222-2.896-1.928-4.257-2.388-1.034-8.085-.215-13.177.858.311-1.008.037-2.272-2.239-3.373-2.379-1.153-8.25-.542-13.444.336.709-1.037 1.091-2.672-1.722-4.185-2.343-1.262-8.302-.889-13.557-.227.846-.967 1.557-2.659-1.307-4.45-2.113-1.325-7.489-1.424-12.508-1.17.603-.936.715-2.295-1.431-3.92-2.033-1.541-7.584-2.107-12.704-2.287.308-.802.148-1.9-1.185-3.359-2.025-2.216-9.075-3.987-14.667-5.089.385-.741.397-1.794-.538-3.285-1.297-2.067-6.254-4.206-10.816-5.809.295-.695.273-1.662-.428-3.015-2.211-4.261-18.519-9.961-18.519-9.961l2.821 5.662-5.505-1.174s-4.242 1.315-1.537 5.026c.809 1.111 2.839 2.104 5.282 2.954-.285.76-.205 1.766.751 3.079.873 1.199 3.168 2.262 5.873 3.154-.141.783.109 1.743 1.221 2.862 1.38 1.389 5.174 2.169 9.071 2.609 15.91 13.36 38.148 22.054 59.703 28.222-.605 1.04-.883 2.608 1.423 4.055 1.703 1.07 5.736.941 9.734.461.133.715.63 1.484 1.807 2.223 1.945 1.221 6.936.88 11.437.234-.671 1.042-1.388 3.025 1.526 4.459 2.052 1.008 6.942.164 11.336-.938-.165.989.188 2.153 2.084 3.085 2.079 1.022 7.075.14 11.513-.983-.035.911.425 1.928 2.116 2.759 2.097 1.032 7.165.125 11.634-1.013.154.765.722 1.558 2.111 2.217 2.151 1.017 7.348-.017 11.857-1.251.312.572.917 1.127 1.99 1.586 2.158.921 7.199-.268 11.613-1.649.123.877.737 1.776 2.461 2.347 1.927.64 5.876-.474 9.68-1.916.128 1.03.812 2.088 3 2.358 1.696.209 4.552-1.084 7.469-2.785l1.106-.03a3.757 3.757 0 0 0 3.635-3.875 3.748 3.748 0 0 0-2.319-3.344" fill="#A68159"/><path d="M152.956 28.847c0 4.031-4.679 7.299-10.452 7.299s-10.452-3.268-10.452-7.299c0-4.031 4.679-7.299 10.452-7.299s10.452 3.268 10.452 7.299m-14.835-7.348l-6.799-13.956 13.956-4.293v17.534l-7.157.715" fill="#A68159"/><path d="M145.538 3.252c.376 1.559-2.582 3.611-6.608 4.586-4.026.975-7.595.503-7.973-1.055-.376-1.556 2.581-3.609 6.606-4.584 4.027-.975 7.597-.503 7.975 1.053" fill="#B99A76"/><path d="M164.935 27.821c-.672-.252-1.593-.355-2.673-.351l.002-.026c0-3.536-2.971-6.4-6.636-6.4-.851 0-1.663.16-2.411.441l-1.856 9.814 4.274 9.83c2.4.379 4.82.663 6.868.866.19.834.945 1.653 2.882 2.142.891.224 2.15.167 3.618-.078.334-1.28.446-3.252-.107-6.319a180.156 180.156 0 0 1-1.215-7.8c-.06.017-.124.034-.185.049-.202-.762-.895-1.543-2.561-2.168" fill="#A0794F"/><path d="M89.274 90.565c1.864-2.553 74.28 15.246 75.149 17.713.868 2.466-2.123 10.994-5.905 12.345-3.782 1.354-69.465-14.199-70.317-16.64-.852-2.439-.79-10.866 1.073-13.418" fill="#7D7E7C"/><path d="M89.274 90.565c-1.863 2.552-1.925 10.979-1.073 13.418.064.183.498.442 1.236.758.722-3.224 2.433-10.384 3.595-11.314 1.293-1.034 55.81 14.23 71.162 18.556.393-1.558.501-2.93.229-3.705-.869-2.467-73.285-20.266-75.149-17.713" fill="#9F9F9D"/><path d="M164.225 108.071a2.514 2.514 0 0 0-.251-.163l-.06-.033c-.28-.154-.664-.329-1.15-.523-1.056 4.029-3.331 9.128-5.568 9.731-2.769.747-53.978-11.961-69.446-15.832.085 1.156.24 2.129.451 2.732.852 2.441 66.535 17.994 70.317 16.64 3.782-1.351 6.773-9.879 5.905-12.345a.44.44 0 0 0-.136-.159c-.018-.016-.041-.032-.062-.048" fill="#6A6A69"/><path d="M144.447 16.83c-11.566-1.474-21.967 5.367-23.232 15.281-1.264 9.914 7.089 19.147 18.655 20.621 11.566 1.475 21.968-5.366 23.233-15.281 1.263-9.913-7.089-19.147-18.656-20.621zm-3.27 26.596c-6.21-.79-10.776-5.096-10.2-9.615.577-4.519 6.077-7.539 12.286-6.75 6.209.793 10.775 5.098 10.199 9.618-.577 4.519-6.077 7.54-12.285 6.747z" fill="#7D7E7C"/><path d="M159.282 217.654c.709-1.037 1.091-2.672-1.722-4.185-2.343-1.262-8.302-.889-13.557-.227.846-.967 1.557-2.659-1.307-4.45-2.113-1.325-7.489-1.424-12.508-1.17.603-.936.715-2.295-1.431-3.92-2.033-1.541-7.584-2.107-12.704-2.287.308-.802.148-1.9-1.185-3.359-2.025-2.216-9.075-3.987-14.667-5.089.385-.741.397-1.794-.538-3.285-1.297-2.067-6.254-4.206-10.816-5.809.295-.695.273-1.662-.428-3.015-.176-.338-.448-.686-.786-1.038-.978 3.082-2.61 6.215-5.337 8.079a19.495 19.495 0 0 1-4.728 2.371c.077.639.425 1.372 1.238 2.19 1.38 1.389 5.174 2.169 9.071 2.609 15.91 13.36 38.148 22.054 59.703 28.222-.538.923-.806 2.26.746 3.561l2.45 1.098c2.038.371 5.007.211 7.961-.143.068.365.233.745.532 1.126 2.427-.503 5.133-1.751 7.48-4.533 2.189-2.594 3.393-5.252 4.046-7.585-2.893-.376-7.411.146-11.513.839" fill="#A0794F"/><path fill="#7D7E7C" d="M132.216 46.013L79.612 206.508l32.744 9.125 33.28-166.401-13.42-3.219"/><path d="M23.788 145.853s14.493 48.845 72.464 60.118c57.972 11.272 93.399-20.934 93.399-20.934l6.978 10.735c0-.001-45.625 47.774-107.355 35.964-61.729-11.809-75.685-82.126-75.685-82.126l10.199-3.757" fill="#7D7E7C"/><path d="M220.055 162.721c-3.267-3.756-41.363 11.219-44.896 17.589-3.533 6.369 18.694 29.094 23.675 27.238 4.981-1.857 24.485-41.069 21.221-44.827M5.218 109.991c-4.74 1.52-6.005 42.434-1.546 48.193s34.108-5.701 34.368-11.011c.259-5.31-28.08-38.7-32.822-37.182" fill="#7D7E7C"/><path d="M20.567 152.83s7.903 22.761 23.94 38.687c16.037 15.926 46.377 24.653 46.377 24.653l43.479-164.79-3.497-1.25-49.743 151.769c-31.911-11.17-47.279-34.303-53.601-47.081 5.821-2.558 10.416-5.57 10.518-7.645.252-5.154-26.445-36.767-32.343-37.22 8.797 8.844 26.422 32.064 26.218 35.147-.246 3.734-11.348 7.73-11.348 7.73M151.188 18.714a24.131 24.131 0 0 0-6.741-1.884c-11.566-1.474-21.967 5.367-23.232 15.281-.446 3.492.323 6.892 1.985 9.905-.025-4.09.591-14.082 6.832-18.961 5.501-4.3 15.502-4.578 21.156-4.341zm1.962 15.137c.311.911.434 1.863.312 2.828-.577 4.519-6.077 7.54-12.285 6.747a15.84 15.84 0 0 1-2.047-.405c1.955.944 7.753 3.228 11.98-.535 4.286-3.815 2.698-7.5 2.04-8.635zm66.905 128.87c-3.267-3.756-41.363 11.219-44.896 17.589-1.317 2.373.947 7.019 4.561 11.819-12.114 7.399-34.861 17.71-65.695 16.05l-2.309 11.559s22.379-1.24 42.508-8.578c20.129-7.336 32.922-19.324 32.922-19.324s-7.783-8.141-6.798-10.021c.983-1.877 33.547-16.639 36.857-17.175a88.273 88.273 0 0 1 3.201-.446c0-.669-.102-1.186-.351-1.473" fill="#9F9F9D"/><path d="M212.195 182.531c-3.578 7.158-11.093 18.251-13.24 18.967-2.147.717-7.515-6.083-7.515-6.083s-41.869 33.995-83.379 33.995c-25.837 0-48.342-11.367-61.657-19.952 10.743 10.296 24.743 18.81 42.87 22.278 47.091 9.009 84.806-16.655 100.047-29.334 4.045 3.513 7.8 5.785 9.513 5.146 4.139-1.542 18.285-28.844 21.09-40.205-1.955 3.805-5.324 10.383-7.729 15.188M5.716 154.978c-1.405-1.035-3.36-15.452-4.584-25.664-.625 12.001.096 25.714 2.54 28.87 1.623 2.097 6.59 1.906 12.258.564l.164-.192-1.073-5.009s-7.114 3.043-9.305 1.431M163.103 37.451c.429-3.367-.273-6.645-1.811-9.579.091 5.098-.148 12.929-5.534 17.856-5.969 5.461-15.504 6.577-17.928 6.654.668.142 1.347.263 2.04.35 11.566 1.475 21.968-5.366 23.233-15.281m-29.876 2.25c-1.643-1.688-2.521-3.764-2.25-5.89.577-4.519 6.077-7.539 12.286-6.75 3.887.497 7.129 2.37 8.869 4.81.004-.013.013-.027.016-.039.448-2.154-3.192-6.251-6.913-7.182-5.746-1.436-11.942-.359-14.546 4.49-2.492 4.639.041 8.913 2.538 10.561" fill="#6A6A69"/><path d="M138.027 28.255c-.501-3.802 14.985-22.278 14.985-22.278l10.431 10.217s-17.413 12.573-19.514 13.567c-2.1.995-5.402 2.294-5.902-1.506" fill="#A68159"/><path d="M163.563 16.424c-1.189 1.075-4.405-.546-7.182-3.62-2.776-3.073-4.064-6.436-2.875-7.511 1.188-1.073 4.404.548 7.181 3.621s4.065 6.436 2.876 7.51" fill="#B99A76"/><path d="M152.091 22.007c0 5.467-4.596 9.898-10.264 9.898-5.668 0-10.264-4.431-10.264-9.898 0-5.469 4.596-9.9 10.264-9.9 5.668 0 10.264 4.431 10.264 9.9m87.88 20.858l-5.349 6.915.333 1.159-1.984-2.269s-4.331-1.263-6.012 2.022c-.473.925-.072 2.297.749 3.792-1.564.613-2.956 3.603-3.977 6.541a4.67 4.67 0 0 0-1.245-.198c-1.806-.053-4.668 2.055-7.318 4.445-.467-.599-1.26-1.056-2.601-1.096-1.921-.058-5.039 2.333-7.827 4.908-.42-.573-1.138-1.044-2.357-1.213-2.216-.307-6.4 2.504-9.775 5.152-.389-.672-1.129-1.243-2.501-1.433-2.263-.315-6.58 2.629-9.99 5.324-.246-.938-.97-1.849-2.781-2.1-2.417-.336-7.177 3.043-10.673 5.868-.168-1.035-.838-2.118-2.842-2.396-2.448-.34-7.298 3.129-10.806 5.974-.298-.857-1.037-1.652-2.708-1.883-2.093-.291-5.94 2.201-9.203 4.708-.305-.847-1.045-1.628-2.7-1.856-2.119-.294-6.035 2.263-9.326 4.802-.186-1.013-.869-2.053-2.826-2.324-2.012-.278-5.65 2.019-8.83 4.425-.189-1.011-.873-2.045-2.823-2.316-2.075-.289-5.869 2.155-9.112 4.637-.231-.959-.943-1.901-2.792-2.158-2.315-.32-6.778 2.763-10.223 5.507.005-1.145-.592-2.435-3.231-2.638-2.664-.205-8.006 2.931-12.316 5.827-.107-1.204-.787-2.655-3.519-2.49-2.597.159-7.204 4.224-10.709 7.715-.375-1.19-1.429-2.901-4.338-1.675-1.833.771-4.015 4.083-5.901 7.592-.286-.424-2.52-3.477-5.22-.148-.873 1.079-1.312 3.33-1.502 5.942l-.264-.659s-3.457-2.787-5.028 1.529c-.49 1.351-.132 3.74.592 6.384l-.104-.109s-4.246-1.301-4.098 3.29c.043 1.313 1.067 3.166 2.506 5.144-1.215.197-3.232.992-2.295 4.153.426 1.437 2.266 3.229 4.549 4.992-1.066.439-2.093 1.469-1.373 3.898.489 1.647 2.835 3.764 5.579 5.768-1.066.581-2.155 1.797-.869 4.253.689 1.317 2.813 2.71 5.365 3.993-.945.743-1.775 2.094-.176 4.288.942 1.293 3.537 2.43 6.518 3.362-.561.797-.736 1.973.468 3.624 1.486 2.039 7.08 3.688 11.82 4.763a243.514 243.514 0 0 0 8.139 8.381 199.853 199.853 0 0 1 3.994-6.665 254.578 254.578 0 0 1-3.573-3.664c.986-.603 1.805-1.796.59-4.136-1.068-2.061-5.428-4.454-9.649-6.379.733-.688 1.191-1.811.344-3.637-.75-1.617-3.699-3.335-6.918-4.799a79.509 79.509 0 0 1-.762-1.163c.484-.56.772-1.425.583-2.759-.178-1.277-1.462-2.928-3.169-4.616.576-.519.976-1.378.865-2.81-.134-1.772-2.315-4.388-4.828-6.85.499-.334.967-.891 1.338-1.809.623-1.536-.022-4.524-1.048-7.619.532-.071 1.134-.308 1.814-.797 1.483-1.061 2.608-4.432 3.415-7.963.42.154.923.25 1.557.25 1.81.005 4.659-2.042 7.354-4.416.486.266 1.134.476 2.026.584 2.525.309 7.568-1.864 12.136-4.21.264.918 1.148 1.734 3.454 1.741 2.396.007 6.753-2.442 10.811-5.125.302.876 1.197 1.63 3.413 1.634 2.476.008 7.043-2.602 11.211-5.388-.079 1.279.423 2.973 3.777 2.655 2.088-.197 5.486-2.41 8.833-5.015.031 1.223.706 2.623 3.782 2.331 2.486-.236 6.832-3.328 10.736-6.534-.25 1.244-.245 3.651 3.697 3.276 2.507-.238 6.904-3.379 10.832-6.616-.151 1.294.191 3.231 3.757 2.892 1.799-.17 4.573-1.838 7.449-3.964.22 1.055 1.097 2.041 3.724 1.791 2.374-.224 6.442-3.054 10.202-6.1.14 1.242.93 2.672 4.056 1.979 2.018-.445 5.06-2.992 8.022-5.932-.022 1.304.49 3.313 4.085 2.516 2.162-.478 5.501-3.367 8.657-6.568.111 1.26.865 2.779 4.068 2.069 2.08-.459 5.249-3.151 8.297-6.205.448 1.003 1.527 1.804 4.073.914 2.032-.71 4.896-3.809 7.583-7.244.12-.069.241-.138.36-.208.683.903 1.903 1.643 3.988.544 1.492-.785 2.972-3.541 4.224-6.62 1.522-1.47 2.785-3.003 3.782-4.6.775-.04 1.608-.396 2.358-1.406 2.23-2.998-2.394-15.475-2.394-15.475M132.118 8.806s-2.757-1.061-1.767-2.121c.99-1.06 2.12 1.272 2.12 1.272s.425-1.059 1.344-.989c.918.07 1.13 1.342 1.13 1.342s.213-1.625 1.414-1.979c1.201-.353 1.485 1.626 1.485 1.626s-.354-2.049.635-2.191c.991-.141 2.191 1.132 2.191 1.132s-.635-1.415.708-2.121c1.343-.707 1.414.918 1.414.918s1.189-2.077 1.837-2.261c.649-.184.283.989.283.989s.849-2.191 1.767-1.556c.92.637-1.485 2.687-1.485 2.687s-3.392 3.181-7.068 3.817c-3.675.636-6.008-.565-6.008-.565m20.004-.778s.282-3.04 1.838-1.767c1.555 1.273-.142 2.685-.142 2.685s2.051-1.272 2.545-.14c.495 1.13-1.202 2.474-1.202 2.474s2.333-1.06 2.899.142c.565 1.2-.778 2.119-.778 2.119s.99-1.414 1.767-.495c.778.919-.213 1.98-.213 1.98s1.273-.99 1.98-.283c.707.706-.353 1.343-.353 1.343s.99-1.626 1.909-.777c.918.847-.284 1.626-.284 1.626l-3.039.777-7.422-7.847.495-1.837" fill="#A68159"/><path d="M133.33 24.114c-.404-2.986-.69-4.096.805-6.71 1.496-2.613 5.905-3.489 5.905-3.489l-1.073 3.221 4.293-2.416-2.147 4.831 5.905-2.952-5.978 6.616 3.168 4.946-4.973-1.633 2.901 4.682-4.96-3.59 1.254 3.74s-4.695-4.26-5.1-7.246" fill="#AF8D67"/><path d="M260.824 234.456c-1.224 3.023-3.444 4.974-4.955 4.362-1.511-.613-1.74-3.56-.516-6.582 1.226-3.021 3.447-4.973 4.956-4.361 1.512.613 1.743 3.561.515 6.581" fill="#B99A76"/><path d="M64.145 107.784s4.066-5.52 8.132-7.261c4.066-1.744 3.485 2.032 3.485 2.032l-2.905 4.647v-3.776l-4.065 6.099.581-4.356-4.357 6.389 1.453-4.065-2.324.291m-10.021 5.615s1.722-4.721 4.225-6.786c2.502-2.062 2.87.714 2.87.714l-1.085 3.869-.778-2.658-1.604 5.129-.49-3.185-1.748 5.394.185-3.16-1.575.683m-6.184 7.26s-.799-4.189.126-6.782c.926-2.589 2.402-.729 2.402-.729l.89 3.291-1.722-1.597 1.062 4.432-1.741-2.106 1.072 4.688-1.24-2.38-.849 1.183m29.812-17.357s4.961-4.731 9.268-5.741c4.307-1.009 3.08 2.606 3.08 2.606l-3.667 4.073.655-3.717-5.062 5.301 1.327-4.189-5.398 5.535 2.135-3.752-2.338-.116m15.138-2.556s4.131-4.787 7.993-6.1c3.864-1.313 3.061 2.116 3.061 2.116l-3 4.068.268-3.472-4.172 5.322.843-3.967-4.46 5.565 1.623-3.632-2.156.1m112.173 128.298s5.205-3.59 9.274-3.885c4.07-.297 2.428 2.82 2.428 2.82l-3.931 3.178 1.137-3.291-5.381 4.095 1.816-3.624-5.719 4.26 2.489-3.107-2.113-.446m-10.221-3.263s3.754-2.018 6.502-1.914c2.747.104 1.416 2.07 1.416 2.07l-2.869 1.837 1.005-2.121-3.908 2.345 1.486-2.293-4.147 2.429 1.897-1.898-1.382-.455m23.103 3.263s5.204-3.59 9.275-3.885c4.07-.297 2.428 2.82 2.428 2.82l-3.931 3.178 1.135-3.291-5.379 4.095 1.816-3.624-5.72 4.26 2.49-3.107-2.114-.446m13.599 0s5.204-3.59 9.274-3.885c4.069-.297 2.428 2.82 2.428 2.82l-3.931 3.178 1.136-3.291-5.38 4.095 1.816-3.624-5.719 4.26 2.489-3.107-2.113-.446m13.598 0s5.206-3.59 9.273-3.885c4.07-.297 2.429 2.82 2.429 2.82l-3.931 3.178 1.136-3.291-5.379 4.095 1.814-3.624-5.718 4.26 2.487-3.107-2.111-.446M104.42 98.159s4.131-4.787 7.994-6.101c3.863-1.313 3.061 2.116 3.061 2.116l-3.001 4.069.268-3.472-4.172 5.321.843-3.966-4.46 5.566 1.624-3.635-2.157.102m13.074-3.263s3.703-4.293 7.165-5.468c3.463-1.179 2.743 1.895 2.743 1.895l-2.689 3.646.24-3.111-3.74 4.77.756-3.555-3.997 4.989 1.456-3.258-1.934.092m11.727-2.447s3.702-4.292 7.165-5.47c3.463-1.176 2.743 1.897 2.743 1.897l-2.689 3.647.24-3.111-3.74 4.77.756-3.555-3.997 4.988 1.455-3.258-1.933.092m12.406-2.915s3.702-4.291 7.165-5.469c3.462-1.177 2.743 1.898 2.743 1.898l-2.69 3.645.24-3.112-3.739 4.772.756-3.555-3.998 4.986 1.456-3.257-1.933.092m13.084-4.05s3.703-4.292 7.165-5.468c3.463-1.177 2.744 1.896 2.744 1.896l-2.69 3.646.24-3.111-3.739 4.771.756-3.557-3.997 4.989 1.454-3.256-1.933.09m13.36-3.194s3.702-4.291 7.165-5.47c3.462-1.176 2.744 1.898 2.744 1.898l-2.69 3.646.239-3.112-3.739 4.771.756-3.555-3.997 4.987 1.455-3.257-1.933.092m13.621-3.988s3.18-3.686 6.154-4.696c2.974-1.012 2.357 1.628 2.357 1.628l-2.311 3.131.206-2.672-3.212 4.096.649-3.053-3.433 4.286 1.251-2.799-1.661.079m14.441-5.22s2.483-2.877 4.805-3.666c2.323-.791 1.841 1.272 1.841 1.272l-1.804 2.445.161-2.086-2.508 3.198.507-2.384-2.682 3.346.977-2.185-1.297.06M194.87 28.9s4.891-2.131 8.31-1.721c3.419.412 1.555 2.728 1.555 2.728l-3.766 1.999 1.469-2.543-5.117 2.526 2.09-2.711-5.426 2.606 2.564-2.173-1.679-.711m21.476 2.424s5.334-.093 8.335 1.596c3 1.692.388 3.117.388 3.117l-4.245.401 2.334-1.785-5.695.371 2.971-1.702-6.011.326 3.2-1.024-1.277-1.3m16.364 7.901s3.995.5 6.058 2.084c2.064 1.585-.041 2.372-.041 2.372l-3.217-.156 1.935-1.084-4.297-.332 2.403-.954-4.528-.399 2.501-.423-.814-1.108m-25.25 29.918s2.089-2.42 4.043-3.086c1.954-.664 1.549 1.071 1.549 1.071l-1.519 2.057.136-1.756-2.11 2.692.425-2.006-2.255 2.815.822-1.839-1.091.052" fill="#AF8D67"/></g></svg>