<?xml version="1.0" encoding="UTF-8" standalone="no"?>
<svg width="281px" height="324px" viewBox="0 0 281 324" version="1.1" xmlns="http://www.w3.org/2000/svg" xmlns:xlink="http://www.w3.org/1999/xlink">
    <!-- Generator: Sketch 3.8.3 (29802) - http://www.bohemiancoding.com/sketch -->
    <title>cube</title>
    <desc>Created with Sketch.</desc>
    <defs></defs>
    <g id="Page-1" stroke="none" stroke-width="1" fill="none" fill-rule="evenodd">
        <g id="NODEWRITE-final2" transform="translate(-281.000000, -95.000000)">
            <g id="cube" transform="translate(281.000000, 94.000000)">
                <polyline id="Fill-3" stroke="#acd4bf" stroke-width="5" fill="#acd4bf" points="248.311 261.897 210.551 283.695 210.573 283.731 140.58 324.143 70.586 283.731 70.609 283.695 11.063 249.32 7.946 247.518 49.318 223.633 91.284 247.859 91.366 247.859 140.58 276.275 189.794 247.859 189.876 247.859 206.938 238.01 248.311 261.897"></polyline>
                <polyline id="Fill-4" stroke="#238a96" stroke-width="5" fill="#238a96" points="280.566 90.122 280.566 243.275 259.886 255.215 192.651 216.397 192.582 216.517 42.147 129.664 42.147 214.408 0.594 238.398 0.594 81.842 21.466 69.792 62.841 93.68 62.786 93.711 239.013 195.456 239.013 114.112 280.566 90.122"></polyline>
                <polyline id="Fill-5" stroke="#acd4bf" stroke-width="5" fill="#acd4bf" points="150.969 6.973 210.573 41.386 210.551 41.422 270.097 75.798 276.164 79.299 234.79 103.187 189.876 77.259 189.794 77.259 140.58 48.843 91.366 77.259 91.284 77.259 74.414 86.997 33.04 63.11 70.609 41.422 70.586 41.386 130.191 6.973 140.58 0.973 150.969 6.973"></polyline>
                <path d="M223.003,110.834 C195.528,94.976 168.055,79.159 140.58,63.295 L94.72,89.774 L94.636,89.774 L87.879,93.683 L87.824,93.715 L170.238,141.298 L223.003,110.834" id="Fill-6" stroke="#505b64" stroke-width="5" fill="#505b64"></path>
                <polyline id="Fill-7" stroke="#238a96" stroke-width="5" fill="#238a96" points="135.108 197.786 54.663 151.341 54.663 212.267 94.636 235.343 94.72 235.343 135.108 258.663 135.108 197.786"></polyline>
                <path d="M180.883,147.443 L226.497,173.778 L226.497,121.108 L180.883,147.443 L180.883,147.443 Z M193.341,231.408 L145.752,203.932 L145.752,258.836 L186.442,235.343 L186.524,235.343 L193.341,231.408 L193.341,231.408 Z" id="Fill-8" stroke="#acd4bf" stroke-width="5" fill="#acd4bf"></path>
            </g>
        </g>
    </g>
</svg>
