<svg width="281" height="324" viewBox="0 0 281 324" xmlns="http://www.w3.org/2000/svg"><title>cube</title><g stroke-width="5" fill="none" fill-rule="evenodd"><path stroke="#acd4bf" fill="#acd4bf" d="M248.311 260.897l-37.76 21.798.022.036-69.993 40.412-69.994-40.412.023-.036-59.546-34.375-3.117-1.802 41.372-23.885 41.966 24.226h.082l49.214 28.416 49.214-28.416h.082l17.062-9.849 41.373 23.887"/><path stroke="#238a96" fill="#238a96" d="M280.566 89.122v153.153l-20.68 11.94-67.235-38.818-.069.12-150.435-86.853v84.744L.594 237.398V80.842l20.872-12.05L62.841 92.68l-.055.031 176.227 101.745v-81.344l41.553-23.99"/><path stroke="#acd4bf" fill="#acd4bf" d="M150.969 5.973l59.604 34.413-.022.036 59.546 34.376 6.067 3.501-41.374 23.888-44.914-25.928h-.082L140.58 47.843 91.366 76.259h-.082l-16.87 9.738L33.04 62.11l37.569-21.688-.023-.036 59.605-34.413 10.389-6 10.389 6"/><path d="M223.003 109.834c-27.475-15.858-54.948-31.675-82.423-47.539L94.72 88.774h-.084l-6.757 3.909-.055.032 82.414 47.583 52.765-30.464" stroke="#505b64" fill="#505b64"/><path stroke="#238a96" fill="#238a96" d="M135.108 196.786l-80.445-46.445v60.926l39.973 23.076h.084l40.388 23.32v-60.877"/><path d="M180.883 146.443l45.614 26.335v-52.67l-45.614 26.335zm12.458 83.965l-47.589-27.476v54.904l40.69-23.493h.082l6.817-3.935z" stroke="#acd4bf" fill="#acd4bf"/></g></svg>