<svg width="228" height="219" viewBox="0 0 228 219" xmlns="http://www.w3.org/2000/svg"><title>Pirate Head</title><g fill="none" fill-rule="evenodd"><path d="M204.498 115.861c0 34.103-40.07 61.75-89.5 61.75s-89.5-27.647-89.5-61.75c0-34.104 40.07-61.75 89.5-61.75s89.5 27.646 89.5 61.75" fill="#F6E0C9"/><path d="M171.831 148.444c0 8.469-6.865 15.334-15.334 15.334-8.468 0-15.333-6.865-15.333-15.334 0-8.468 6.865-15.333 15.333-15.333 8.469 0 15.334 6.865 15.334 15.333m-83.666 0c0 8.469-6.865 15.334-15.334 15.334-8.468 0-15.333-6.865-15.333-15.334 0-8.468 6.865-15.333 15.333-15.333 8.469 0 15.334 6.865 15.334 15.333" fill="#ECC5AB"/><path d="M10.797 115.213c0 6.113 4.956 11.069 11.069 11.069s11.068-4.956 11.068-11.069c0-6.112-4.955-11.068-11.068-11.068-6.113 0-11.069 4.956-11.069 11.068" fill="#F6E0C9"/><path d="M14.268 115.356s-.357-3.692 2.157-5.718c2.515-2.027 6.915-1.765 6.915-1.765s-4.251 3.129-5.41 6.168c-.436 1.14-.684 3.096-.121 4.554.937 2.433 3.128 4.253 3.128 4.253s-2.535-1.009-3.988-3.112c-.988-1.434-1.177-3.799-.887-5.039.719-3.058 2.466-4.382 2.466-4.382s-.796-.084-2.095.868c-1.518 1.112-2.165 4.173-2.165 4.173" fill="#ECC5AB"/><path d="M218.895 115.213c0 6.113-4.957 11.069-11.07 11.069-6.112 0-11.067-4.956-11.067-11.069 0-6.112 4.955-11.068 11.067-11.068 6.113 0 11.07 4.956 11.07 11.068" fill="#F6E0C9"/><path d="M215.424 115.356s.356-3.692-2.157-5.718c-2.515-2.027-6.915-1.765-6.915-1.765s4.25 3.129 5.41 6.168c.435 1.14.683 3.096.121 4.554-.938 2.433-3.129 4.253-3.129 4.253s2.535-1.009 3.988-3.112c.989-1.434 1.178-3.799.888-5.039-.72-3.058-2.467-4.382-2.467-4.382s.796-.084 2.096.868c1.517 1.112 2.165 4.173 2.165 4.173M114.998 53.111c-42.939 0-78.808 20.864-87.49 48.699 20.252 1.8 50.927 3.686 86.99 3.134 36.488-.559 67.461-2.469 87.702-4.046-9.173-27.378-44.732-47.787-87.202-47.787" fill="#ECC5AB"/><path d="M170.4 96.466c-.411.147-41.594 14.672-81.907 13.802-40.123-.867-60.816-12.963-61.02-13.085l-1.542 2.573c.525.315 8.479 4.975 23.966 8.746-.839 3.493-4.287 21.841 15.219 24.246 18.658 2.3 21.618-14.844 22.078-19.519.414.011.817.028 1.235.038 40.878.882 82.564-13.827 82.981-13.975l-1.01-2.826" fill="#ECC5AB"/><path d="M205.356 93.111l-12.5 1s6.917 24.665.228 35.278c-6.688 10.613-25.825 20.061-37.585 13.835-13.29-7.036-29.337-11.215-40.572-10.118-11.236-1.097-27.283 3.082-40.573 10.118-11.759 6.226-30.896-3.222-37.585-13.835-6.688-10.613.229-35.278.229-35.278l-12.5-1s-3.178 11.836-2 32c.036.621.082 1.21.124 1.815l-.124-.315s-1.333 12 2.667 28.333c4 16.334 11.333 22 11.333 22l2.225-1.271c.131.221.261.441.395.663.839 1.895 3.895 7.592 13.713 17.942 12.333 13 21.667 14.666 21.667 14.666l1.354-2.164c17.667 7.404 37.219 11.442 39 11.802l.004.029.071-.014.071.014.004-.029c1.683-.341 19.259-3.97 36.105-10.625l.724 2.654s17.666-6 27-14.667c7.484-6.948 12.393-18.819 14.046-23.254.237-.413.472-.823.702-1.229l2.586.817s6.333-11.334 8.666-23c1.69-8.455 2.156-16.731 2.285-20.649.089-1.146.169-2.314.24-3.518 1.177-20.164-2-32-2-32" fill="#B54626"/><path d="M179.106 123.58a9 9 0 1 1-18 0 9 9 0 0 1 18 0" fill="#ECC5AB"/><path d="M178.106 121.913a9 9 0 1 1-18 0 9 9 0 0 1 18 0" fill="#FFF"/><path d="M175.606 121.913a6.5 6.5 0 1 1-13 0 6.5 6.5 0 0 1 13 0" fill="#151414"/><path d="M169.17 120.33a2.005 2.005 0 1 1-4.01 0 2.005 2.005 0 0 1 4.01 0" fill="#E1E0DE"/><path d="M36.678 95.335L24.561 97.49s2.498 3.122 3.747 4.163a53.482 53.482 0 0 0 2.706 2.082s-1.04 3.123.417 11.867c.819 4.916 2.691 8.911 4.173 11.466-3.962-9.862-.106-27.038 1.074-31.733m160.255-1.55c.94 4.4 3.014 16.67 2.232 36.494-1 25.333-8 34.666-8 34.666s-5.667-2.666-5.667-1.666-1.667 10.666-9.667 23.666-20.333 17-20.333 17l-2.667-5.666s-6.666 5-18.666 11-19 7.666-19 7.666-6.667-1-12.667-2.333c-4.081-.907-14.635-3.818-20.971-5.587 15.95 5.974 31.734 9.235 33.325 9.557l.004.029.071-.014.071.014.004-.029c1.683-.341 19.259-3.97 36.105-10.625l.724 2.654s17.666-6 27-14.667c7.484-6.948 12.393-18.819 14.046-23.254.237-.413.472-.823.702-1.229l2.586.817s6.333-11.334 8.666-23c1.69-8.455 2.156-16.731 2.285-20.649.089-1.146.169-2.314.24-3.518 1.177-20.164-2-32-2-32l-8.423.674" fill="#A03D21"/><path d="M169.4 95.133c-.411.147-41.594 14.672-81.907 13.802-40.123-.867-60.816-12.963-61.02-13.085l-1.542 2.573c.525.315 8.479 4.975 23.965 8.746-.838 3.493-4.286 21.841 15.22 24.246 18.658 2.3 21.618-14.844 22.078-19.519.414.011.817.028 1.235.038 40.878.882 82.564-13.827 82.981-13.976l-1.01-2.825" fill="#151414"/><path d="M1.498 96.611s48.666 6 114 5 112-5.334 112-5.334l.333-36.333s-41.334-2.334-51-13.667c-9.666-11.333-17.667-45.333-64-45.333s-44.999 35-57.666 45.333c-12.667 10.334-54.667 15-54.667 15l1 35.334" fill="#151414"/><path d="M156.498 107.611c1.083-1.069 6.587-2.821 13.333-3.334 6.746-.512 14.293-.573 15 .667.707 1.24-1.279 8.746-3.333 8.667-2.054-.079-4.275-2.348-10.333-2.334-6.058.015-10.546 2.553-12.334 2-1.788-.552-3.416-4.598-2.333-5.666" fill="#ECC5AB"/><path d="M155.498 105.944c1.083-1.068 6.587-2.821 13.333-3.333 6.746-.513 14.293-.574 15 .666.707 1.241-1.279 8.746-3.333 8.667-2.054-.079-4.275-2.347-10.333-2.333-6.058.014-10.546 2.552-12.334 2-1.788-.552-3.416-4.598-2.333-5.667" fill="#B54626"/><path d="M95.959 127.473s1.128 7.335 3.667 8.839c2.539 1.504 8.182.094 8.182.094s4.419 4.325 9.873 4.325 9.403-4.325 9.403-4.325 4.891.94 7.899-.188c3.009-1.129 3.667-5.266 3.667-5.266s-7.24-11.096-20.405-11.096c-13.165 0-22.286 7.617-22.286 7.617" fill="#F6E0C9"/><path d="M135.959 135.523c-.211.149-.416.298-.648.442-2.821 1.748-8.227.441-8.227.441s-3.905 3.729-10.171 4c-6.265.272-9.515-4.282-9.515-4.282s-4.8 1.429-7.296.159c-.808-.411-1.553-1.063-2.194-1.756-.603.133-1.211.28-1.819.429.346 1.646.994 3.426 2.221 4.264 2.595 1.772 8.685.503 8.685.503s3.179 4.432 10.629 4.221c7.451-.212 9.984-4.16 9.984-4.16s5.563 1.247 9.111-.352c1.314-.593 2.017-1.761 2.383-2.997a93.998 93.998 0 0 0-3.143-.912" fill="#A03D21"/><path d="M96.326 128.755s1.528 5.232 3.943 6.502c2.415 1.27 7.582-.296 7.582-.296s3.489 4.939 9.55 4.668c6.062-.272 9.362-4.373 9.362-4.373s5.842 1.453 8.569-.295c2.728-1.748 3.251-5.615 3.251-5.615s.865 5.793-2.567 7.392c-3.433 1.599-8.814.353-8.814.353s-2.451 3.948-9.659 4.159c-7.208.212-10.283-4.221-10.283-4.221s-5.891 1.269-8.402-.503c-2.51-1.772-2.532-7.771-2.532-7.771" fill="#ECC5AB"/><path d="M115.894 131.187c0 1.48-1.178 2.68-2.632 2.68-1.454 0-2.633-1.2-2.633-2.68 0-1.48 1.179-2.68 2.633-2.68s2.632 1.2 2.632 2.68" fill="#FFEFE1"/><path d="M134.952 151.065c1.025 2.139-.409 4.947-3.306 5.878a48.462 48.462 0 0 1-29.754 0c-2.897-.931-4.33-3.739-3.307-5.878 1.024-2.153 3.649-3.047 5.948-2.313a39.905 39.905 0 0 0 24.472 0c2.299-.734 4.924.16 5.947 2.313" fill="#151414"/><path d="M147.503 43.485c0 9.865-14.661 17.862-32.745 17.862-18.084 0-32.745-7.997-32.745-17.862 0-9.864 14.661-17.862 32.745-17.862 18.084 0 32.745 7.998 32.745 17.862" fill="#FFFDE6"/><path d="M94.455 55.87s-.832 8.455 1.906 11.55c.71.803 3.446 1.332 7.118 1.644v-5.217a.596.596 0 0 1 1.191 0v5.31c2.864.197 6.182.278 9.527.264v-5.574a.595.595 0 0 1 1.191 0v5.567c3.356-.037 6.674-.166 9.526-.367v-5.2a.596.596 0 0 1 1.19 0v5.111c3.897-.316 6.69-.771 7.052-1.299 1.312-1.905 2.026-11.671 2.026-11.671l-40.727-.118" fill="#FFFDE6"/><path d="M104.687 49.729a4.355 4.355 0 1 1-8.71 0v-9.39a4.356 4.356 0 0 1 8.71 0v9.39m28.852 0a4.356 4.356 0 0 1-8.71 0v-9.39a4.354 4.354 0 1 1 8.71 0v9.39m-19.299 6.559a1.548 1.548 0 0 1-3.094 0v-3.337a1.546 1.546 0 1 1 3.094 0v3.337m4.129 0a1.546 1.546 0 1 1-3.094 0v-3.337a1.546 1.546 0 1 1 3.094 0v3.337" fill="#151414"/><path fill="#FFFDE6" d="M141.716 73.227L89.94 88.38l-1.61-5.507 51.775-15.15 1.611 5.504"/><path d="M91.805 81.396a4.08 4.08 0 0 1-2.771 5.063 4.082 4.082 0 1 1 2.771-5.063" fill="#FFFDE6"/><path d="M93.664 87.748a4.082 4.082 0 1 1-7.834 2.295 4.082 4.082 0 0 1 7.834-2.295m50.023-21.534a4.08 4.08 0 0 1-2.773 5.063 4.079 4.079 0 0 1-5.062-2.771 4.08 4.08 0 0 1 2.771-5.063 4.081 4.081 0 0 1 5.064 2.771" fill="#FFFDE6"/><path d="M145.546 72.566a4.081 4.081 0 0 1-2.772 5.063 4.079 4.079 0 0 1-5.063-2.77 4.08 4.08 0 0 1 2.771-5.064 4.084 4.084 0 0 1 5.064 2.771m-5.502 16.114L88.356 73.231 90 67.733l51.687 15.45-1.643 5.497" fill="#FFFDE6"/><path d="M93.722 68.385a4.084 4.084 0 0 1-7.824-2.339 4.084 4.084 0 0 1 7.824 2.339" fill="#FFFDE6"/><path d="M91.825 74.727a4.083 4.083 0 0 1-7.823-2.338 4.083 4.083 0 0 1 7.823 2.338m53.689 9.14a4.083 4.083 0 1 1-7.822-2.343 4.083 4.083 0 0 1 7.822 2.343" fill="#FFFDE6"/><path d="M143.617 90.208a4.082 4.082 0 1 1-7.821-2.337 4.082 4.082 0 0 1 7.821 2.337" fill="#FFFDE6"/></g></svg>