<?xml version="1.0" encoding="UTF-8"?>
<svg width="268px" height="242px" viewBox="0 0 268 242" version="1.1" xmlns="http://www.w3.org/2000/svg" xmlns:xlink="http://www.w3.org/1999/xlink">
    <!-- Generator: Sketch 43 (38999) - http://www.bohemiancoding.com/sketch -->
    <title>Anchor</title>
    <desc>Created with Sketch.</desc>
    <defs></defs>
    <g id="Page-1" stroke="none" stroke-width="1" fill="none" fill-rule="evenodd">
        <g id="pirate" transform="translate(-384.000000, -390.000000)">
            <g id="Anchor" transform="translate(384.000000, 389.000000)">
                <path d="M154.384,5.919 C154.384,5.919 154.242,3.939 155.798,4.081 C157.353,4.221 156.505,6.413 156.505,6.413 C156.505,6.413 157.494,4.151 158.907,4.928 C160.322,5.706 158.625,7.755 158.625,7.755 C158.625,7.755 160.038,6.201 161.17,7.402 C162.301,8.604 160.251,9.452 160.251,9.452 C160.251,9.452 162.442,7.968 163.219,9.381 C163.997,10.795 161.664,11.29 161.664,11.29 C161.664,11.29 164.209,10.23 164.704,11.714 C165.198,13.198 163.149,13.34 163.149,13.34 C163.149,13.34 165.34,13.269 165.481,14.612 C165.623,15.955 163.856,15.672 163.856,15.672 C163.856,15.672 166.117,15.531 166.117,16.874 C166.117,18.217 163.502,17.581 163.502,17.581 C163.503,17.581 164.562,18.358 163.432,18.854 C162.301,19.348 161.594,17.652 161.594,17.652 L152.97,7.402 C152.97,7.402 150.991,6.908 151.769,5.565 C152.546,4.221 154.384,5.919 154.384,5.919" id="Fill-127" fill="#A68159"></path>
                <path d="M145.407,5.07 C145.407,5.07 146.821,3.091 145.549,1.96 C144.276,0.829 143.993,3.585 143.993,3.585 C143.993,3.585 143.357,0.899 142.014,0.97 C140.67,1.041 141.449,2.737 141.449,2.737 C141.449,2.737 139.611,1.182 138.904,1.252 C138.197,1.324 138.762,2.948 138.762,2.948 C138.762,2.948 137.631,1.041 136.642,1.464 C135.652,1.889 136.783,3.585 136.783,3.585 C136.783,3.585 135.37,1.324 134.169,2.171 C132.966,3.02 134.309,4.434 134.309,4.434 C134.309,4.434 132.826,2.736 131.694,3.443 C130.563,4.151 132.189,6.483 132.189,6.483 C132.189,6.483 130.21,4.081 129.291,5.423 C128.372,6.766 132.189,8.321 132.189,8.321 L145.407,5.07" id="Fill-128" fill="#A68159"></path>
                <path d="M185.565,30.655 L185.548,30.647 C185.545,30.65 185.544,30.652 185.542,30.654 C185.549,30.654 185.557,30.655 185.565,30.655" id="Fill-129" fill="#A68159"></path>
                <path d="M206.729,32.194 L206.684,32.156 L206.593,32.176 C206.639,32.181 206.683,32.188 206.729,32.194" id="Fill-130" fill="#A68159"></path>
                <path d="M240.673,45.672 C241.399,44.951 241.92,43.836 241.254,42.19 C240.254,39.721 233.331,37.724 229.437,36.779 C229.818,35.885 229.648,34.68 227.79,33.237 C224.859,30.964 214.627,30.474 208.734,30.384 C209.168,29.328 209.033,27.935 206.459,26.781 C202.918,25.194 192.068,27.393 186.499,28.687 C186.584,27.726 186.049,26.639 183.87,25.821 C180.897,24.707 173.2,26.428 167.496,27.989 C167.294,27.227 166.601,26.446 164.935,25.821 C164.263,25.569 163.342,25.466 162.262,25.47 C162.263,25.461 162.264,25.453 162.264,25.444 C162.264,21.908 159.293,19.044 155.628,19.044 C151.963,19.044 148.992,21.908 148.992,25.444 C148.992,26.259 149.156,27.035 149.444,27.751 C145.198,28.884 141.812,30.013 141.812,30.013 L144.479,31.057 C143.415,31.811 142.172,33.377 144.849,35.804 C147.428,38.141 156.541,39.404 162.503,39.995 C162.693,40.829 163.448,41.648 165.385,42.137 C167.738,42.729 172.649,41.365 177.286,39.711 C177.509,40.514 178.271,41.295 180.14,41.765 C182.153,42.272 186.039,41.346 190.024,40.032 C189.967,40.989 190.53,42.055 192.709,42.825 C194.978,43.626 199.929,42.745 204.663,41.545 C204.877,42.055 205.274,42.585 205.962,43.114 C207.817,44.543 213.171,44.249 217.612,43.694 C217.687,44.324 217.972,44.981 218.619,45.617 C219.63,46.608 222.19,46.551 224.85,46.14 C224.648,46.755 224.629,47.487 224.973,48.354 C225.812,50.471 231.394,51.732 235.084,52.346 C235.084,52.514 235.079,52.683 235.062,52.856 C237.585,52.909 240.092,52.994 242.574,53.131 C242.732,50.472 242.087,47.943 240.673,45.672 Z M206.729,32.194 C206.683,32.188 206.639,32.181 206.593,32.176 L206.684,32.156 L206.729,32.194 Z M185.565,30.655 C185.557,30.655 185.549,30.654 185.542,30.654 C185.544,30.652 185.545,30.65 185.548,30.647 L185.565,30.655 L185.565,30.655 Z" id="Fill-131" fill="#A68159"></path>
                <path d="M264.793,232.291 C265.401,231.273 266.419,228.776 262.429,227.857 C261.86,227.726 261.141,227.722 260.32,227.807 C260.394,226.758 259.84,225.596 257.388,225.03 C255.069,224.495 250.308,225.983 245.83,227.753 C245.88,226.719 245.306,225.586 242.896,225.03 C240.714,224.527 236.375,225.814 232.14,227.44 C232.06,226.497 231.375,225.53 229.206,225.03 C227.165,224.559 223.231,225.656 219.262,227.133 C219.277,226.121 218.671,225.035 216.325,224.493 C214.215,224.006 210.08,225.195 205.977,226.748 C206.526,225.6 206.7,223.856 203.576,222.843 C201.023,222.014 195.151,223.48 190.07,225.09 C190.779,224.012 191.292,222.194 188.142,220.833 C185.754,219.799 180.057,220.618 174.965,221.691 C175.276,220.683 175.002,219.419 172.726,218.318 C170.347,217.165 164.476,217.776 159.282,218.654 C159.991,217.617 160.373,215.982 157.56,214.469 C155.217,213.207 149.258,213.58 144.003,214.242 C144.849,213.275 145.56,211.583 142.696,209.792 C140.583,208.467 135.207,208.368 130.188,208.622 C130.791,207.686 130.903,206.327 128.757,204.702 C126.724,203.161 121.173,202.595 116.053,202.415 C116.361,201.613 116.201,200.515 114.868,199.056 C112.843,196.84 105.793,195.069 100.201,193.967 C100.586,193.226 100.598,192.173 99.663,190.682 C98.366,188.615 93.409,186.476 88.847,184.873 C89.142,184.178 89.12,183.211 88.419,181.858 C86.208,177.597 69.9,171.897 69.9,171.897 L72.721,177.559 L67.216,176.385 C67.216,176.385 62.974,177.7 65.679,181.411 C66.488,182.522 68.518,183.515 70.961,184.365 C70.676,185.125 70.756,186.131 71.712,187.444 C72.585,188.643 74.88,189.706 77.585,190.598 C77.444,191.381 77.694,192.341 78.806,193.46 C80.186,194.849 83.98,195.629 87.877,196.069 C103.787,209.429 126.025,218.123 147.58,224.291 C146.975,225.331 146.697,226.899 149.003,228.346 C150.706,229.416 154.739,229.287 158.737,228.807 C158.87,229.522 159.367,230.291 160.544,231.03 C162.489,232.251 167.48,231.91 171.981,231.264 C171.31,232.306 170.593,234.289 173.507,235.723 C175.559,236.731 180.449,235.887 184.843,234.785 C184.678,235.774 185.031,236.938 186.927,237.87 C189.006,238.892 194.002,238.01 198.44,236.887 C198.405,237.798 198.865,238.815 200.556,239.646 C202.653,240.678 207.721,239.771 212.19,238.633 C212.344,239.398 212.912,240.191 214.301,240.85 C216.452,241.867 221.649,240.833 226.158,239.599 C226.47,240.171 227.075,240.726 228.148,241.185 C230.306,242.106 235.347,240.917 239.761,239.536 C239.884,240.413 240.498,241.312 242.222,241.883 C244.149,242.523 248.098,241.409 251.902,239.967 C252.03,240.997 252.714,242.055 254.902,242.325 C256.598,242.534 259.454,241.241 262.371,239.54 C262.949,239.525 263.342,239.513 263.477,239.51 C265.551,239.443 267.179,237.708 267.112,235.635 C267.065,234.114 266.113,232.839 264.793,232.291" id="Fill-132" fill="#A68159"></path>
                <path d="M152.956,29.847 C152.956,33.878 148.277,37.146 142.504,37.146 C136.731,37.146 132.052,33.878 132.052,29.847 C132.052,25.816 136.731,22.548 142.504,22.548 C148.277,22.548 152.956,25.816 152.956,29.847" id="Fill-133" fill="#A68159"></path>
                <polyline id="Fill-134" fill="#A68159" points="138.121 22.499 131.322 8.543 145.278 4.25 145.278 21.784 138.121 22.499"></polyline>
                <path d="M145.538,4.252 C145.914,5.811 142.956,7.863 138.93,8.838 C134.904,9.813 131.335,9.341 130.957,7.783 C130.581,6.227 133.538,4.174 137.563,3.199 C141.59,2.224 145.16,2.696 145.538,4.252" id="Fill-135" fill="#B99A76"></path>
                <path d="M164.935,28.821 C164.263,28.569 163.342,28.466 162.262,28.47 C162.263,28.461 162.264,28.453 162.264,28.444 C162.264,24.908 159.293,22.044 155.628,22.044 C154.777,22.044 153.965,22.204 153.217,22.485 L151.361,32.299 L155.635,42.129 C158.035,42.508 160.455,42.792 162.503,42.995 C162.693,43.829 163.448,44.648 165.385,45.137 C166.276,45.361 167.535,45.304 169.003,45.059 C169.337,43.779 169.449,41.807 168.896,38.74 C168.411,36.052 168.005,33.343 167.681,30.94 C167.621,30.957 167.557,30.974 167.496,30.989 C167.294,30.227 166.601,29.446 164.935,28.821" id="Fill-136" fill="#A0794F"></path>
                <path d="M89.274,91.565 C91.138,89.012 163.554,106.811 164.423,109.278 C165.291,111.744 162.3,120.272 158.518,121.623 C154.736,122.977 89.053,107.424 88.201,104.983 C87.349,102.544 87.411,94.117 89.274,91.565" id="Fill-137" fill="#7D7E7C"></path>
                <path d="M89.274,91.565 C87.411,94.117 87.349,102.544 88.201,104.983 C88.265,105.166 88.699,105.425 89.437,105.741 C90.159,102.517 91.87,95.357 93.032,94.427 C94.325,93.393 148.842,108.657 164.194,112.983 C164.587,111.425 164.695,110.053 164.423,109.278 C163.554,106.811 91.138,89.012 89.274,91.565" id="Fill-138" fill="#9F9F9D"></path>
                <path d="M164.225,109.071 C164.158,109.021 164.075,108.966 163.974,108.908 C163.953,108.897 163.935,108.886 163.914,108.875 C163.634,108.721 163.25,108.546 162.764,108.352 C161.708,112.381 159.433,117.48 157.196,118.083 C154.427,118.83 103.218,106.122 87.75,102.251 C87.835,103.407 87.99,104.38 88.201,104.983 C89.053,107.424 154.736,122.977 158.518,121.623 C162.3,120.272 165.291,111.744 164.423,109.278 C164.406,109.23 164.355,109.176 164.287,109.119 C164.269,109.103 164.246,109.087 164.225,109.071" id="Fill-139" fill="#6A6A69"></path>
                <path d="M144.447,17.83 C132.881,16.356 122.48,23.197 121.215,33.111 C119.951,43.025 128.304,52.258 139.87,53.732 C151.436,55.207 161.838,48.366 163.103,38.451 C164.366,28.538 156.014,19.304 144.447,17.83 Z M141.177,44.426 C134.967,43.636 130.401,39.33 130.977,34.811 C131.554,30.292 137.054,27.272 143.263,28.061 C149.472,28.854 154.038,33.159 153.462,37.679 C152.885,42.198 147.385,45.219 141.177,44.426 L141.177,44.426 Z" id="Fill-140" fill="#7D7E7C"></path>
                <path d="M159.282,218.654 C159.991,217.617 160.373,215.982 157.56,214.469 C155.217,213.207 149.258,213.58 144.003,214.242 C144.849,213.275 145.56,211.583 142.696,209.792 C140.583,208.467 135.207,208.368 130.188,208.622 C130.791,207.686 130.903,206.327 128.757,204.702 C126.724,203.161 121.173,202.595 116.053,202.415 C116.361,201.613 116.201,200.515 114.868,199.056 C112.843,196.84 105.793,195.069 100.201,193.967 C100.586,193.226 100.598,192.173 99.663,190.682 C98.366,188.615 93.409,186.476 88.847,184.873 C89.142,184.178 89.12,183.211 88.419,181.858 C88.243,181.52 87.971,181.172 87.633,180.82 C86.655,183.902 85.023,187.035 82.296,188.899 C80.69,190 79.085,190.75 77.568,191.27 C77.645,191.909 77.993,192.642 78.806,193.46 C80.186,194.849 83.98,195.629 87.877,196.069 C103.787,209.429 126.025,218.123 147.58,224.291 C147.042,225.214 146.774,226.551 148.326,227.852 L150.776,228.95 C152.814,229.321 155.783,229.161 158.737,228.807 C158.805,229.172 158.97,229.552 159.269,229.933 C161.696,229.43 164.402,228.182 166.749,225.4 C168.938,222.806 170.142,220.148 170.795,217.815 C167.902,217.439 163.384,217.961 159.282,218.654" id="Fill-141" fill="#A0794F"></path>
                <polyline id="Fill-142" fill="#7D7E7C" points="132.216 47.013 79.612 207.508 112.356 216.633 145.636 50.232 132.216 47.013"></polyline>
                <path d="M23.788,146.853 C23.788,146.853 38.281,195.698 96.252,206.971 C154.224,218.243 189.651,186.037 189.651,186.037 L196.629,196.772 C196.629,196.771 151.004,244.546 89.274,232.736 C27.545,220.927 13.589,150.61 13.589,150.61 L23.788,146.853" id="Fill-143" fill="#7D7E7C"></path>
                <path d="M220.055,163.721 C216.788,159.965 178.692,174.94 175.159,181.31 C171.626,187.679 193.853,210.404 198.834,208.548 C203.815,206.691 223.319,167.479 220.055,163.721" id="Fill-144" fill="#7D7E7C"></path>
                <path d="M5.218,110.991 C0.478,112.511 -0.787,153.425 3.672,159.184 C8.131,164.943 37.78,153.483 38.04,148.173 C38.299,142.863 9.96,109.473 5.218,110.991" id="Fill-145" fill="#7D7E7C"></path>
                <path d="M20.567,153.83 C20.567,153.83 28.47,176.591 44.507,192.517 C60.544,208.443 90.884,217.17 90.884,217.17 L134.363,52.38 L130.866,51.13 L81.123,202.899 C49.212,191.729 33.844,168.596 27.522,155.818 C33.343,153.26 37.938,150.248 38.04,148.173 C38.292,143.019 11.595,111.406 5.697,110.953 C14.494,119.797 32.119,143.017 31.915,146.1 C31.669,149.834 20.567,153.83 20.567,153.83" id="Fill-146" fill="#9F9F9D"></path>
                <path d="M151.188,19.714 C149.115,18.796 146.857,18.136 144.447,17.83 C132.881,16.356 122.48,23.197 121.215,33.111 C120.769,36.603 121.538,40.003 123.2,43.016 C123.175,38.926 123.791,28.934 130.032,24.055 C135.533,19.755 145.534,19.477 151.188,19.714 Z M153.15,34.851 C153.461,35.762 153.584,36.714 153.462,37.679 C152.885,42.198 147.385,45.219 141.177,44.426 C140.47,44.336 139.789,44.195 139.13,44.021 C141.085,44.965 146.883,47.249 151.11,43.486 C155.396,39.671 153.808,35.986 153.15,34.851 L153.15,34.851 Z" id="Fill-147" fill="#9F9F9D"></path>
                <path d="M220.055,163.721 C216.788,159.965 178.692,174.94 175.159,181.31 C173.842,183.683 176.106,188.329 179.72,193.129 C167.606,200.528 144.859,210.839 114.025,209.179 L111.716,220.738 C111.716,220.738 134.095,219.498 154.224,212.16 C174.353,204.824 187.146,192.836 187.146,192.836 C187.146,192.836 179.363,184.695 180.348,182.815 C181.331,180.938 213.895,166.176 217.205,165.64 C218.146,165.487 219.273,165.334 220.406,165.194 C220.406,164.525 220.304,164.008 220.055,163.721" id="Fill-148" fill="#9F9F9D"></path>
                <path d="M212.195,183.531 C208.617,190.689 201.102,201.782 198.955,202.498 C196.808,203.215 191.44,196.415 191.44,196.415 C191.44,196.415 149.571,230.41 108.061,230.41 C82.224,230.41 59.719,219.043 46.404,210.458 C57.147,220.754 71.147,229.268 89.274,232.736 C136.365,241.745 174.08,216.081 189.321,203.402 C193.366,206.915 197.121,209.187 198.834,208.548 C202.973,207.006 217.119,179.704 219.924,168.343 C217.969,172.148 214.6,178.726 212.195,183.531" id="Fill-149" fill="#6A6A69"></path>
                <path d="M5.716,155.978 C4.311,154.943 2.356,140.526 1.132,130.314 C0.507,142.315 1.228,156.028 3.672,159.184 C5.295,161.281 10.262,161.09 15.93,159.748 C16.033,159.628 16.094,159.556 16.094,159.556 L15.021,154.547 C15.021,154.547 7.907,157.59 5.716,155.978" id="Fill-150" fill="#6A6A69"></path>
                <path d="M163.103,38.451 C163.532,35.084 162.83,31.806 161.292,28.872 C161.383,33.97 161.144,41.801 155.758,46.728 C149.789,52.189 140.254,53.305 137.83,53.382 C138.498,53.524 139.177,53.645 139.87,53.732 C151.436,55.207 161.838,48.366 163.103,38.451" id="Fill-151" fill="#6A6A69"></path>
                <path d="M133.227,40.701 C131.584,39.013 130.706,36.937 130.977,34.811 C131.554,30.292 137.054,27.272 143.263,28.061 C147.15,28.558 150.392,30.431 152.132,32.871 C152.136,32.858 152.145,32.844 152.148,32.832 C152.596,30.678 148.956,26.581 145.235,25.65 C139.489,24.214 133.293,25.291 130.689,30.14 C128.197,34.779 130.73,39.053 133.227,40.701" id="Fill-152" fill="#6A6A69"></path>
                <path d="M138.027,29.255 C137.526,25.453 153.012,6.977 153.012,6.977 L163.443,17.194 C163.443,17.194 146.03,29.767 143.929,30.761 C141.829,31.756 138.527,33.055 138.027,29.255" id="Fill-153" fill="#A68159"></path>
                <path d="M163.563,17.424 C162.374,18.499 159.158,16.878 156.381,13.804 C153.605,10.731 152.317,7.368 153.506,6.293 C154.694,5.22 157.91,6.841 160.687,9.914 C163.464,12.987 164.752,16.35 163.563,17.424" id="Fill-154" fill="#B99A76"></path>
                <path d="M152.091,23.007 C152.091,28.474 147.495,32.905 141.827,32.905 C136.159,32.905 131.563,28.474 131.563,23.007 C131.563,17.538 136.159,13.107 141.827,13.107 C147.495,13.107 152.091,17.538 152.091,23.007" id="Fill-155" fill="#A68159"></path>
                <path d="M239.971,43.865 L234.622,50.78 L234.955,51.939 L232.971,49.67 C232.971,49.67 228.64,48.407 226.959,51.692 C226.486,52.617 226.887,53.989 227.708,55.484 C226.144,56.097 224.752,59.087 223.731,62.025 C223.377,61.916 222.971,61.842 222.486,61.827 C220.68,61.774 217.818,63.882 215.168,66.272 C214.701,65.673 213.908,65.216 212.567,65.176 C210.646,65.118 207.528,67.509 204.74,70.084 C204.32,69.511 203.602,69.04 202.383,68.871 C200.167,68.564 195.983,71.375 192.608,74.023 C192.219,73.351 191.479,72.78 190.107,72.59 C187.844,72.275 183.527,75.219 180.117,77.914 C179.871,76.976 179.147,76.065 177.336,75.814 C174.919,75.478 170.159,78.857 166.663,81.682 C166.495,80.647 165.825,79.564 163.821,79.286 C161.373,78.946 156.523,82.415 153.015,85.26 C152.717,84.403 151.978,83.608 150.307,83.377 C148.214,83.086 144.367,85.578 141.104,88.085 C140.799,87.238 140.059,86.457 138.404,86.229 C136.285,85.935 132.369,88.492 129.078,91.031 C128.892,90.018 128.209,88.978 126.252,88.707 C124.24,88.429 120.602,90.726 117.422,93.132 C117.233,92.121 116.549,91.087 114.599,90.816 C112.524,90.527 108.73,92.971 105.487,95.453 C105.256,94.494 104.544,93.552 102.695,93.295 C100.38,92.975 95.917,96.058 92.472,98.802 C92.477,97.657 91.88,96.367 89.241,96.164 C86.577,95.959 81.235,99.095 76.925,101.991 C76.818,100.787 76.138,99.336 73.406,99.501 C70.809,99.66 66.202,103.725 62.697,107.216 C62.322,106.026 61.268,104.315 58.359,105.541 C56.526,106.312 54.344,109.624 52.458,113.133 C52.172,112.709 49.938,109.656 47.238,112.985 C46.365,114.064 45.926,116.315 45.736,118.927 L45.472,118.268 C45.472,118.268 42.015,115.481 40.444,119.797 C39.954,121.148 40.312,123.537 41.036,126.181 L40.932,126.072 C40.932,126.072 36.686,124.771 36.834,129.362 C36.877,130.675 37.901,132.528 39.34,134.506 C38.125,134.703 36.108,135.498 37.045,138.659 C37.471,140.096 39.311,141.888 41.594,143.651 C40.528,144.09 39.501,145.12 40.221,147.549 C40.71,149.196 43.056,151.313 45.8,153.317 C44.734,153.898 43.645,155.114 44.931,157.57 C45.62,158.887 47.744,160.28 50.296,161.563 C49.351,162.306 48.521,163.657 50.12,165.851 C51.062,167.144 53.657,168.281 56.638,169.213 C56.077,170.01 55.902,171.186 57.106,172.837 C58.592,174.876 64.186,176.525 68.926,177.6 C71.543,180.436 74.273,183.233 77.065,185.981 C78.329,183.76 79.677,181.538 81.059,179.316 C79.824,178.076 78.638,176.856 77.486,175.652 C78.472,175.049 79.291,173.856 78.076,171.516 C77.008,169.455 72.648,167.062 68.427,165.137 C69.16,164.449 69.618,163.326 68.771,161.5 C68.021,159.883 65.072,158.165 61.853,156.701 C61.592,156.312 61.341,155.925 61.091,155.538 C61.575,154.978 61.863,154.113 61.674,152.779 C61.496,151.502 60.212,149.851 58.505,148.163 C59.081,147.644 59.481,146.785 59.37,145.353 C59.236,143.581 57.055,140.965 54.542,138.503 C55.041,138.169 55.509,137.612 55.88,136.694 C56.503,135.158 55.858,132.17 54.832,129.075 C55.364,129.004 55.966,128.767 56.646,128.278 C58.129,127.217 59.254,123.846 60.061,120.315 C60.481,120.469 60.984,120.565 61.618,120.565 C63.428,120.57 66.277,118.523 68.972,116.149 C69.458,116.415 70.106,116.625 70.998,116.733 C73.523,117.042 78.566,114.869 83.134,112.523 C83.398,113.441 84.282,114.257 86.588,114.264 C88.984,114.271 93.341,111.822 97.399,109.139 C97.701,110.015 98.596,110.769 100.812,110.773 C103.288,110.781 107.855,108.171 112.023,105.385 C111.944,106.664 112.446,108.358 115.8,108.04 C117.888,107.843 121.286,105.63 124.633,103.025 C124.664,104.248 125.339,105.648 128.415,105.356 C130.901,105.12 135.247,102.028 139.151,98.822 C138.901,100.066 138.906,102.473 142.848,102.098 C145.355,101.86 149.752,98.719 153.68,95.482 C153.529,96.776 153.871,98.713 157.437,98.374 C159.236,98.204 162.01,96.536 164.886,94.41 C165.106,95.465 165.983,96.451 168.61,96.201 C170.984,95.977 175.052,93.147 178.812,90.101 C178.952,91.343 179.742,92.773 182.868,92.08 C184.886,91.635 187.928,89.088 190.89,86.148 C190.868,87.452 191.38,89.461 194.975,88.664 C197.137,88.186 200.476,85.297 203.632,82.096 C203.743,83.356 204.497,84.875 207.7,84.165 C209.78,83.706 212.949,81.014 215.997,77.96 C216.445,78.963 217.524,79.764 220.07,78.874 C222.102,78.164 224.966,75.065 227.653,71.63 C227.773,71.561 227.894,71.492 228.013,71.422 C228.696,72.325 229.916,73.065 232.001,71.966 C233.493,71.181 234.973,68.425 236.225,65.346 C237.747,63.876 239.01,62.343 240.007,60.746 C240.782,60.706 241.615,60.35 242.365,59.34 C244.595,56.342 239.971,43.865 239.971,43.865" id="Fill-156" fill="#A68159"></path>
                <path d="M132.118,9.806 C132.118,9.806 129.361,8.745 130.351,7.685 C131.341,6.625 132.471,8.957 132.471,8.957 C132.471,8.957 132.896,7.898 133.815,7.968 C134.733,8.038 134.945,9.31 134.945,9.31 C134.945,9.31 135.158,7.685 136.359,7.331 C137.56,6.978 137.844,8.957 137.844,8.957 C137.844,8.957 137.49,6.908 138.479,6.766 C139.47,6.625 140.67,7.898 140.67,7.898 C140.67,7.898 140.035,6.483 141.378,5.777 C142.721,5.07 142.792,6.695 142.792,6.695 C142.792,6.695 143.981,4.618 144.629,4.434 C145.278,4.25 144.912,5.423 144.912,5.423 C144.912,5.423 145.761,3.232 146.679,3.867 C147.599,4.504 145.194,6.554 145.194,6.554 C145.194,6.554 141.802,9.735 138.126,10.371 C134.451,11.007 132.118,9.806 132.118,9.806" id="Fill-157" fill="#A68159"></path>
                <path d="M152.122,9.028 C152.122,9.028 152.404,5.988 153.96,7.261 C155.515,8.534 153.818,9.946 153.818,9.946 C153.818,9.946 155.869,8.674 156.363,9.806 C156.858,10.936 155.161,12.28 155.161,12.28 C155.161,12.28 157.494,11.22 158.06,12.422 C158.625,13.622 157.282,14.541 157.282,14.541 C157.282,14.541 158.272,13.127 159.049,14.046 C159.827,14.965 158.836,16.026 158.836,16.026 C158.836,16.026 160.109,15.036 160.816,15.743 C161.523,16.449 160.463,17.086 160.463,17.086 C160.463,17.086 161.453,15.46 162.372,16.309 C163.29,17.156 162.088,17.935 162.088,17.935 L159.049,18.712 L151.627,10.865 L152.122,9.028" id="Fill-158" fill="#A68159"></path>
                <path d="M133.33,25.114 C132.926,22.128 132.64,21.018 134.135,18.404 C135.631,15.791 140.04,14.915 140.04,14.915 L138.967,18.136 L143.26,15.72 L141.113,20.551 L147.018,17.599 L141.04,24.215 L144.208,29.161 L139.235,27.528 L142.136,32.21 L137.176,28.62 L138.43,32.36 C138.43,32.36 133.735,28.1 133.33,25.114" id="Fill-159" fill="#AF8D67"></path>
                <path d="M260.824,235.456 C259.6,238.479 257.38,240.43 255.869,239.818 C254.358,239.205 254.129,236.258 255.353,233.236 C256.579,230.215 258.8,228.263 260.309,228.875 C261.821,229.488 262.052,232.436 260.824,235.456" id="Fill-160" fill="#B99A76"></path>
                <path d="M64.145,108.784 C64.145,108.784 68.211,103.264 72.277,101.523 C76.343,99.779 75.762,103.555 75.762,103.555 L72.857,108.202 L72.857,104.426 L68.792,110.525 L69.373,106.169 L65.016,112.558 L66.469,108.493 L64.145,108.784" id="Fill-161" fill="#AF8D67"></path>
                <path d="M54.124,114.399 C54.124,114.399 55.846,109.678 58.349,107.613 C60.851,105.551 61.219,108.327 61.219,108.327 L60.134,112.196 L59.356,109.538 L57.752,114.667 L57.262,111.482 L55.514,116.876 L55.699,113.716 L54.124,114.399" id="Fill-162" fill="#AF8D67"></path>
                <path d="M47.94,121.659 C47.94,121.659 47.141,117.47 48.066,114.877 C48.992,112.288 50.468,114.148 50.468,114.148 L51.358,117.439 L49.636,115.842 L50.698,120.274 L48.957,118.168 L50.029,122.856 L48.789,120.476 L47.94,121.659" id="Fill-163" fill="#AF8D67"></path>
                <path d="M77.752,104.302 C77.752,104.302 82.713,99.571 87.02,98.561 C91.327,97.552 90.1,101.167 90.1,101.167 L86.433,105.24 L87.088,101.523 L82.026,106.824 L83.353,102.635 L77.955,108.17 L80.09,104.418 L77.752,104.302" id="Fill-164" fill="#AF8D67"></path>
                <path d="M92.89,101.746 C92.89,101.746 97.021,96.959 100.883,95.646 C104.747,94.333 103.944,97.762 103.944,97.762 L100.944,101.83 L101.212,98.358 L97.04,103.68 L97.883,99.713 L93.423,105.278 L95.046,101.646 L92.89,101.746" id="Fill-165" fill="#AF8D67"></path>
                <path d="M205.063,230.044 C205.063,230.044 210.268,226.454 214.337,226.159 C218.407,225.862 216.765,228.979 216.765,228.979 L212.834,232.157 L213.971,228.866 L208.59,232.961 L210.406,229.337 L204.687,233.597 L207.176,230.49 L205.063,230.044" id="Fill-166" fill="#AF8D67"></path>
                <path d="M194.842,226.781 C194.842,226.781 198.596,224.763 201.344,224.867 C204.091,224.971 202.76,226.937 202.76,226.937 L199.891,228.774 L200.896,226.653 L196.988,228.998 L198.474,226.705 L194.327,229.134 L196.224,227.236 L194.842,226.781" id="Fill-167" fill="#AF8D67"></path>
                <path d="M217.945,230.044 C217.945,230.044 223.149,226.454 227.22,226.159 C231.29,225.862 229.648,228.979 229.648,228.979 L225.717,232.157 L226.852,228.866 L221.473,232.961 L223.289,229.337 L217.569,233.597 L220.059,230.49 L217.945,230.044" id="Fill-168" fill="#AF8D67"></path>
                <path d="M231.544,230.044 C231.544,230.044 236.748,226.454 240.818,226.159 C244.887,225.862 243.246,228.979 243.246,228.979 L239.315,232.157 L240.451,228.866 L235.071,232.961 L236.887,229.337 L231.168,233.597 L233.657,230.49 L231.544,230.044" id="Fill-169" fill="#AF8D67"></path>
                <path d="M245.142,230.044 C245.142,230.044 250.348,226.454 254.415,226.159 C258.485,225.862 256.844,228.979 256.844,228.979 L252.913,232.157 L254.049,228.866 L248.67,232.961 L250.484,229.337 L244.766,233.597 L247.253,230.49 L245.142,230.044" id="Fill-170" fill="#AF8D67"></path>
                <path d="M104.42,99.159 C104.42,99.159 108.551,94.372 112.414,93.058 C116.277,91.745 115.475,95.174 115.475,95.174 L112.474,99.243 L112.742,95.771 L108.57,101.092 L109.413,97.126 L104.953,102.692 L106.577,99.057 L104.42,99.159" id="Fill-171" fill="#AF8D67"></path>
                <path d="M117.494,95.896 C117.494,95.896 121.197,91.603 124.659,90.428 C128.122,89.249 127.402,92.323 127.402,92.323 L124.713,95.969 L124.953,92.858 L121.213,97.628 L121.969,94.073 L117.972,99.062 L119.428,95.804 L117.494,95.896" id="Fill-172" fill="#AF8D67"></path>
                <path d="M129.221,93.449 C129.221,93.449 132.923,89.157 136.386,87.979 C139.849,86.803 139.129,89.876 139.129,89.876 L136.44,93.523 L136.68,90.412 L132.94,95.182 L133.696,91.627 L129.699,96.615 L131.154,93.357 L129.221,93.449" id="Fill-173" fill="#AF8D67"></path>
                <path d="M141.627,90.534 C141.627,90.534 145.329,86.243 148.792,85.065 C152.254,83.888 151.535,86.963 151.535,86.963 L148.845,90.608 L149.085,87.496 L145.346,92.268 L146.102,88.713 L142.104,93.699 L143.56,90.442 L141.627,90.534" id="Fill-174" fill="#AF8D67"></path>
                <path d="M154.711,86.484 C154.711,86.484 158.414,82.192 161.876,81.016 C165.339,79.839 164.62,82.912 164.62,82.912 L161.93,86.558 L162.17,83.447 L158.431,88.218 L159.187,84.661 L155.19,89.65 L156.644,86.394 L154.711,86.484" id="Fill-175" fill="#AF8D67"></path>
                <path d="M168.071,83.29 C168.071,83.29 171.773,78.999 175.236,77.82 C178.698,76.644 177.98,79.718 177.98,79.718 L175.29,83.364 L175.529,80.252 L171.79,85.023 L172.546,81.468 L168.549,86.455 L170.004,83.198 L168.071,83.29" id="Fill-176" fill="#AF8D67"></path>
                <path d="M181.692,79.302 C181.692,79.302 184.872,75.616 187.846,74.606 C190.82,73.594 190.203,76.234 190.203,76.234 L187.892,79.365 L188.098,76.693 L184.886,80.789 L185.535,77.736 L182.102,82.022 L183.353,79.223 L181.692,79.302" id="Fill-177" fill="#AF8D67"></path>
                <path d="M196.133,74.082 C196.133,74.082 198.616,71.205 200.938,70.416 C203.261,69.625 202.779,71.688 202.779,71.688 L200.975,74.133 L201.136,72.047 L198.628,75.245 L199.135,72.861 L196.453,76.207 L197.43,74.022 L196.133,74.082" id="Fill-178" fill="#AF8D67"></path>
                <path d="M194.87,29.9 C194.87,29.9 199.761,27.769 203.18,28.179 C206.599,28.591 204.735,30.907 204.735,30.907 L200.969,32.906 L202.438,30.363 L197.321,32.889 L199.411,30.178 L193.985,32.784 L196.549,30.611 L194.87,29.9" id="Fill-179" fill="#AF8D67"></path>
                <path d="M216.346,32.324 C216.346,32.324 221.68,32.231 224.681,33.92 C227.681,35.612 225.069,37.037 225.069,37.037 L220.824,37.438 L223.158,35.653 L217.463,36.024 L220.434,34.322 L214.423,34.648 L217.623,33.624 L216.346,32.324" id="Fill-180" fill="#AF8D67"></path>
                <path d="M232.71,40.225 C232.71,40.225 236.705,40.725 238.768,42.309 C240.832,43.894 238.727,44.681 238.727,44.681 L235.51,44.525 L237.445,43.441 L233.148,43.109 L235.551,42.155 L231.023,41.756 L233.524,41.333 L232.71,40.225" id="Fill-181" fill="#AF8D67"></path>
                <path d="M207.46,70.143 C207.46,70.143 209.549,67.723 211.503,67.057 C213.457,66.393 213.052,68.128 213.052,68.128 L211.533,70.185 L211.669,68.429 L209.559,71.121 L209.984,69.115 L207.729,71.93 L208.551,70.091 L207.46,70.143" id="Fill-182" fill="#AF8D67"></path>
            </g>
        </g>
    </g>
</svg>